<svg width="33" height="29" viewBox="0 0 33 29" fill="none" xmlns="http://www.w3.org/2000/svg">
<path d="M8.64322 5.36108L4.48535 12.5188" stroke="#1C8BDB" stroke-miterlimit="10"/>
<path d="M20.9162 3.21912H12.4385" stroke="#1C8BDB" stroke-miterlimit="10"/>
<path d="M28.5771 12.6343L24.4509 5.52905" stroke="#1C8BDB" stroke-miterlimit="10"/>
<path d="M24.3665 23.8206L28.5208 16.6699" stroke="#1C8BDB" stroke-miterlimit="10"/>
<path d="M12.4456 25.9872H20.9162" stroke="#1C8BDB" stroke-miterlimit="10"/>
<path d="M4.54541 16.7889L8.71738 23.9746" stroke="#1C8BDB" stroke-miterlimit="10"/>
<path d="M10.0338 5.80214C11.3677 5.80214 12.449 4.72714 12.449 3.40107C12.449 2.075 11.3677 1 10.0338 1C8.69995 1 7.61865 2.075 7.61865 3.40107C7.61865 4.72714 8.69995 5.80214 10.0338 5.80214Z" stroke="#1C8BDB" stroke-miterlimit="10"/>
<path d="M23.3314 5.80214C24.6653 5.80214 25.7466 4.72714 25.7466 3.40107C25.7466 2.075 24.6653 1 23.3314 1C21.9976 1 20.9163 2.075 20.9163 3.40107C20.9163 4.72714 21.9976 5.80214 23.3314 5.80214Z" stroke="#1C8BDB" stroke-miterlimit="10"/>
<path d="M16.4977 13.5793C18.0357 13.5793 19.2826 12.3397 19.2826 10.8107C19.2826 9.28165 18.0357 8.04211 16.4977 8.04211C14.9597 8.04211 13.7129 9.28165 13.7129 10.8107C13.7129 12.3397 14.9597 13.5793 16.4977 13.5793Z" stroke="#1C8BDB" stroke-miterlimit="10"/>
<path d="M10.0338 28.3882C11.3677 28.3882 12.449 27.3132 12.449 25.9871C12.449 24.6611 11.3677 23.5861 10.0338 23.5861C8.69995 23.5861 7.61865 24.6611 7.61865 25.9871C7.61865 27.3132 8.69995 28.3882 10.0338 28.3882Z" stroke="#1C8BDB" stroke-miterlimit="10"/>
<path d="M23.3314 28.3882C24.6653 28.3882 25.7466 27.3132 25.7466 25.9871C25.7466 24.6611 24.6653 23.5861 23.3314 23.5861C21.9976 23.5861 20.9163 24.6611 20.9163 25.9871C20.9163 27.3132 21.9976 28.3882 23.3314 28.3882Z" stroke="#1C8BDB" stroke-miterlimit="10"/>
<path d="M29.8585 17.0689C31.1924 17.0689 32.2737 15.9939 32.2737 14.6678C32.2737 13.3417 31.1924 12.2667 29.8585 12.2667C28.5247 12.2667 27.4434 13.3417 27.4434 14.6678C27.4434 15.9939 28.5247 17.0689 29.8585 17.0689Z" stroke="#1C8BDB" stroke-miterlimit="10"/>
<path d="M3.41515 17.0689C4.749 17.0689 5.83031 15.9939 5.83031 14.6678C5.83031 13.3417 4.749 12.2667 3.41515 12.2667C2.0813 12.2667 1 13.3417 1 14.6678C1 15.9939 2.0813 17.0689 3.41515 17.0689Z" stroke="#1C8BDB" stroke-miterlimit="10"/>
<path d="M16.4979 13.5794C17.6702 13.5831 18.7933 14.0479 19.6219 14.8723C20.4504 15.6967 20.9171 16.8136 20.9199 17.979V19.9951H12.0479V17.979C12.0492 17.3996 12.1655 16.8261 12.3899 16.2913C12.6143 15.7565 12.9426 15.271 13.3558 14.8624C13.7691 14.4538 14.2593 14.1302 14.7985 13.91C15.3376 13.6899 15.9151 13.5775 16.4979 13.5794V13.5794Z" stroke="#1C8BDB" stroke-miterlimit="10"/>
</svg>
