<svg width="33" height="29" viewBox="0 0 33 29" fill="none" xmlns="http://www.w3.org/2000/svg">
<path d="M4.93848 3.51658L7.46982 1L9.86737 3.38357" stroke="#1C8BDB" stroke-miterlimit="10"/>
<path d="M16.3418 10.2508V1" stroke="#1C8BDB" stroke-miterlimit="10"/>
<path d="M13.814 3.51658L16.3418 1L18.7393 3.38357" stroke="#1C8BDB" stroke-miterlimit="10"/>
<path d="M25.2314 10.2508V1" stroke="#1C8BDB" stroke-miterlimit="10"/>
<path d="M22.7002 3.51658L25.2315 1L27.6291 3.38357" stroke="#1C8BDB" stroke-miterlimit="10"/>
<path d="M16.3418 10.2508V1" stroke="#1C8BDB" stroke-miterlimit="10"/>
<path d="M13.814 3.51658L16.3418 1L18.7393 3.38357" stroke="#1C8BDB" stroke-miterlimit="10"/>
<path d="M7.4873 10.2508V1" stroke="#1C8BDB" stroke-miterlimit="10"/>
<path d="M32.0442 21.4167C32.4633 18.9189 28.7358 16.2196 23.7186 15.3876C18.7014 14.5556 14.2944 15.906 13.8753 18.4037C13.4562 20.9015 17.1837 23.6009 22.2009 24.4329C27.2181 25.2649 31.6251 23.9145 32.0442 21.4167Z" stroke="#1C8BDB" stroke-miterlimit="10"/>
<path d="M13.8773 18.4025L13.3668 21.4301C12.9479 23.9291 16.6762 26.6277 21.6931 27.4607C26.71 28.2938 31.1179 26.9427 31.5509 24.4436L32.0614 21.4161" stroke="#1C8BDB" stroke-miterlimit="10"/>
<path d="M17.4191 24.6852L17.1868 26.0712" stroke="#1C8BDB" stroke-miterlimit="10"/>
<path d="M21.5629 25.7073L21.2812 27.3943" stroke="#1C8BDB" stroke-miterlimit="10"/>
<path d="M13.4232 21.1186C12.6138 21.5698 11.7683 21.9537 10.8954 22.2666C6.31857 23.9082 1.96353 23.4007 1.13618 21.1291C0.308834 18.8575 3.33658 15.6829 7.89933 14.0414C12.4621 12.3998 16.9755 13.1804 17.8029 15.4414" stroke="#1C8BDB" stroke-miterlimit="10"/>
<path d="M1.13281 21.129L2.1362 23.8836C2.96707 26.1552 7.33617 26.6627 11.8954 25.0211C12.7101 24.7324 13.5011 24.3813 14.2613 23.9711" stroke="#1C8BDB" stroke-miterlimit="10"/>
<path d="M7.03687 24.6991L7.49454 25.9626" stroke="#1C8BDB" stroke-miterlimit="10"/>
<path d="M10.9624 23.6246L11.5222 25.1577" stroke="#1C8BDB" stroke-miterlimit="10"/>
</svg>
