<svg width="172" height="104" viewBox="0 0 172 104" fill="none" xmlns="http://www.w3.org/2000/svg">
<path d="M0.13623 48.8847H1.02929L3.09544 51.5866L5.10104 48.8847H5.98653V54.7123H4.99508V50.6481L3.21653 52.964H2.95921L1.14282 50.6481V54.6972H0.13623V48.8847Z" fill="white"/>
<path d="M10.9209 53.9025C10.7197 54.1826 10.4533 54.4096 10.1448 54.5639C9.83626 54.7181 9.49484 54.7951 9.14996 54.788C8.84321 54.8122 8.53483 54.7705 8.24552 54.6657C7.95621 54.5609 7.69266 54.3954 7.47259 54.1804C7.25251 53.9653 7.081 53.7057 6.96956 53.4188C6.85812 53.132 6.80934 52.8247 6.82649 52.5175C6.80208 52.217 6.84251 51.9148 6.94506 51.6313C7.04761 51.3479 7.20988 51.0897 7.42087 50.8744C7.63187 50.6591 7.88667 50.4917 8.16801 50.3834C8.44936 50.2752 8.75068 50.2286 9.05158 50.247C9.31793 50.2311 9.58467 50.2709 9.83482 50.3637C10.085 50.4565 10.3131 50.6004 10.5046 50.7862C10.6961 50.9721 10.8468 51.1957 10.9471 51.4429C11.0475 51.6902 11.0953 51.9556 11.0874 52.2223C11.084 52.4276 11.0663 52.6325 11.0345 52.8353H7.82551C7.86171 53.1516 8.02097 53.4409 8.26884 53.6406C8.51671 53.8403 8.83325 53.9344 9.14996 53.9025C9.37438 53.9031 9.59585 53.8514 9.79683 53.7515C9.99782 53.6517 10.1728 53.5065 10.3079 53.3273L10.9209 53.9025ZM7.84065 52.0482H10.1111C10.1007 51.9165 10.0641 51.7881 10.0034 51.6707C9.94261 51.5533 9.85902 51.4492 9.75747 51.3646C9.65593 51.28 9.5385 51.2165 9.41207 51.178C9.28565 51.1394 9.15279 51.1265 9.0213 51.14C8.74704 51.1187 8.4746 51.1997 8.25655 51.3674C8.03851 51.5351 7.89034 51.7777 7.84065 52.0482Z" fill="white"/>
<path d="M11.1936 50.3832H12.3743L13.8879 52.0709V50.3832H14.8415V52.0785L16.3552 50.3832H17.5056L15.7119 52.3434L17.551 54.7123H16.4233L15.0232 52.9186L14.8415 53.1078V54.7501H13.8879V53.0775L13.6911 52.8732L12.3061 54.7123H11.1785L12.9722 52.3585L11.1936 50.3832Z" fill="white"/>
<path d="M18.0808 50.3832H19.0344V50.7767C19.185 50.6115 19.3704 50.4817 19.5771 50.3967C19.7839 50.3116 20.0069 50.2734 20.2302 50.2848C20.5165 50.2731 20.802 50.3224 21.0677 50.4294C21.3335 50.5364 21.5735 50.6987 21.7717 50.9056C21.97 51.1124 22.122 51.3591 22.2177 51.6291C22.3133 51.8992 22.3505 52.1865 22.3266 52.4721C22.3497 52.7693 22.3108 53.0681 22.2122 53.3494C22.1136 53.6308 21.9576 53.8885 21.754 54.1063C21.5504 54.3241 21.3038 54.4972 21.0297 54.6146C20.7557 54.7319 20.4602 54.7909 20.1621 54.788C19.7542 54.8212 19.3494 54.6936 19.0344 54.4322V56.3773H18.0808V50.3832ZM19.0344 51.8969V53.4105C19.1432 53.5808 19.2949 53.7194 19.4743 53.8124C19.6536 53.9054 19.8543 53.9495 20.0561 53.9403C20.2329 53.9462 20.4089 53.9147 20.5726 53.8478C20.7364 53.781 20.8842 53.6804 21.0063 53.5525C21.1285 53.4246 21.2223 53.2724 21.2816 53.1058C21.3408 52.9391 21.3643 52.7619 21.3503 52.5856C21.3503 51.7076 20.8811 51.2006 20.1318 51.2006C19.9033 51.1946 19.678 51.255 19.4832 51.3746C19.2884 51.4942 19.1325 51.6677 19.0344 51.8742V51.8969Z" fill="white"/>
<path d="M26.9507 53.9025C26.7501 54.1815 26.485 54.4079 26.1779 54.5621C25.8708 54.7163 25.5308 54.7938 25.1872 54.7879C24.8808 54.8123 24.5727 54.7706 24.2838 54.6658C23.9948 54.5609 23.7317 54.3953 23.5122 54.1801C23.2927 53.9649 23.1219 53.7052 23.0114 53.4183C22.9008 53.1315 22.8531 52.8243 22.8713 52.5175C22.8458 52.2174 22.8851 51.9153 22.9868 51.6318C23.0884 51.3484 23.25 51.0901 23.4604 50.8746C23.6708 50.6592 23.9252 50.4916 24.2062 50.3833C24.4872 50.275 24.7883 50.2285 25.0889 50.247C25.3552 50.2311 25.622 50.2708 25.8721 50.3637C26.1223 50.4565 26.3503 50.6004 26.5418 50.7862C26.7333 50.972 26.8841 51.1957 26.9844 51.4429C27.0848 51.6902 27.1326 51.9556 27.1247 52.2223C27.1213 52.4276 27.1036 52.6325 27.0718 52.8353H23.8552C23.9003 53.1506 24.0678 53.4353 24.3214 53.628C24.5749 53.8206 24.8942 53.9056 25.2099 53.8646C25.4344 53.8652 25.6558 53.8135 25.8568 53.7137C26.0578 53.6139 26.2328 53.4686 26.3679 53.2894L26.9507 53.9025ZM23.8704 52.0482H26.1409C26.1305 51.9157 26.0936 51.7867 26.0324 51.6688C25.9712 51.5508 25.8869 51.4464 25.7845 51.3617C25.6822 51.2769 25.5638 51.2137 25.4365 51.1756C25.3092 51.1375 25.1755 51.1254 25.0434 51.14C24.7704 51.1206 24.4998 51.2025 24.2834 51.37C24.067 51.5376 23.9199 51.779 23.8704 52.0482Z" fill="white"/>
<path d="M27.8816 50.3832H31.1435V51.2611H28.8276V54.7123H27.8816V50.3832Z" fill="white"/>
<path d="M31.6809 54.7123V50.3832H32.6118V53.2062L34.8823 50.3832H35.7072V54.7123H34.7991V51.8969L32.5286 54.7123H31.6809Z" fill="white"/>
<path d="M38.8178 50.2848C39.2648 50.2938 39.6992 50.4345 40.0666 50.6893C40.4339 50.9442 40.7179 51.3019 40.8828 51.7174C41.0477 52.133 41.0862 52.588 40.9936 53.0254C40.9009 53.4628 40.6811 53.8631 40.3619 54.1762C40.0426 54.4892 39.638 54.7009 39.1989 54.7849C38.7597 54.8689 38.3056 54.8214 37.8933 54.6483C37.4811 54.4752 37.1291 54.1842 36.8816 53.8119C36.6341 53.4395 36.502 53.0024 36.5019 52.5553C36.492 52.2506 36.5456 51.9472 36.6591 51.6642C36.7726 51.3813 36.9436 51.125 37.1613 50.9116C37.379 50.6981 37.6386 50.5322 37.9238 50.4243C38.2089 50.3165 38.5133 50.2689 38.8178 50.2848ZM38.8178 53.9025C38.9999 53.9148 39.1825 53.888 39.3533 53.8238C39.5242 53.7597 39.6793 53.6598 39.8084 53.5308C39.9374 53.4017 40.0373 53.2466 40.1014 53.0757C40.1656 52.9048 40.1924 52.7222 40.1801 52.5402C40.1895 52.36 40.1616 52.1798 40.0981 52.011C40.0347 51.8421 39.937 51.6882 39.8112 51.5588C39.6854 51.4295 39.5343 51.3275 39.3672 51.2594C39.2002 51.1912 39.0208 51.1583 38.8405 51.1627C38.4772 51.1627 38.1287 51.3071 37.8718 51.564C37.615 51.8209 37.4706 52.1693 37.4706 52.5326C37.4706 52.8959 37.615 53.2444 37.8718 53.5013C38.1287 53.7581 38.4772 53.9025 38.8405 53.9025H38.8178Z" fill="white"/>
<path d="M44.9179 52.9564H42.8367V54.7123H41.8906V50.3832H42.8367V52.0785H44.9179V50.3832H45.864V54.7123H44.9179V52.9564Z" fill="white"/>
<path d="M46.8555 50.9206C47.3593 50.4928 48.0036 50.2664 48.6643 50.2848C48.9043 50.2584 49.1472 50.2863 49.3749 50.3664C49.6027 50.4464 49.8096 50.5766 49.9803 50.7473C50.1511 50.9181 50.2813 51.125 50.3613 51.3527C50.4414 51.5805 50.4692 51.8234 50.4428 52.0634V54.7123H49.4892V54.2355C49.3167 54.4143 49.1079 54.5541 48.8768 54.6455C48.6458 54.7368 48.3978 54.7777 48.1496 54.7653C47.954 54.791 47.7552 54.7749 47.5663 54.718C47.3773 54.6611 47.2027 54.5646 47.0538 54.4351C46.905 54.3056 46.7854 54.1459 46.7029 53.9667C46.6204 53.7874 46.577 53.5927 46.5754 53.3954C46.5754 52.4267 47.4534 52.0255 48.6037 52.0255C48.9038 52.0301 49.2017 52.0759 49.4892 52.1618C49.4892 51.5336 49.2546 51.1855 48.5583 51.1855C48.1025 51.1848 47.6618 51.3487 47.3171 51.6471L46.8555 50.9206ZM49.4892 53.35V52.9186C49.243 52.8481 48.9885 52.8099 48.7324 52.8051C48.0513 52.8051 47.5896 52.9489 47.5896 53.3803C47.5896 53.8117 47.9075 53.9328 48.3918 53.9328C48.6087 53.9341 48.8225 53.8816 49.0141 53.7798C49.2056 53.6781 49.3689 53.5304 49.4892 53.35Z" fill="white"/>
<path d="M54.3784 51.2611H52.8647V51.9423C52.8647 54.2128 52.1079 54.8334 51.0408 54.7426L50.9651 53.8646C51.4192 53.8646 51.9263 53.6224 51.9263 51.5941V50.3832H55.3169V54.7123H54.3784V51.2611Z" fill="white"/>
<path d="M56.3081 50.3832H57.2541V51.6395H58.1699C59.57 51.6395 60.0014 52.3434 60.0014 53.1532C60.0014 53.963 59.5171 54.7047 58.1094 54.7047H56.3081V50.3832ZM57.2541 52.525V53.8268H58.0791C58.7678 53.8268 59.0176 53.5997 59.0176 53.1683C59.0176 52.737 58.7527 52.525 58.0867 52.525H57.2541Z" fill="white"/>
<path d="M63.6418 52.9564H61.5908V54.7123H60.6145V50.3832H61.5605V52.0785H63.6418V50.3832H64.6257V54.7123H63.6418V52.9564Z" fill="white"/>
<path d="M65.6021 50.3832H66.5557V51.6395H67.3125C68.7126 51.6395 69.144 52.3434 69.144 53.1532C69.144 53.963 68.6521 54.7047 67.2444 54.7047H65.6096L65.6021 50.3832ZM66.5557 52.525V53.8268H67.2217C67.9104 53.8268 68.1526 53.5997 68.1526 53.1683C68.1526 52.737 67.8952 52.525 67.2292 52.525H66.5557ZM69.583 50.3832H70.529V54.7123H69.583V50.3832Z" fill="white"/>
<path d="M71.4978 54.7123V50.3832H72.4514V53.2062L74.7219 50.3832H75.5469V54.7123H74.6008V51.8969L72.3303 54.7123H71.4978ZM73.0115 48.5441C73.0065 48.6226 73.0189 48.7012 73.0476 48.7744C73.0763 48.8475 73.1208 48.9135 73.1778 48.9676C73.2348 49.0218 73.303 49.0627 73.3776 49.0876C73.4521 49.1125 73.5313 49.1208 73.6094 49.1118C73.6856 49.1187 73.7625 49.1088 73.8346 49.0828C73.9066 49.0567 73.972 49.0151 74.0262 48.961C74.0804 48.9068 74.122 48.8414 74.148 48.7693C74.1741 48.6973 74.184 48.6204 74.177 48.5441H75.0398C75.003 48.9039 74.834 49.2373 74.5656 49.4797C74.2972 49.7221 73.9483 49.8563 73.5867 49.8563C73.225 49.8563 72.8761 49.7221 72.6077 49.4797C72.3393 49.2373 72.1703 48.9039 72.1335 48.5441H73.0115Z" fill="white"/>
<path d="M2.97435 60.3431H0.946039V63.7943H0V59.4652H3.92795V63.7943H2.97435V60.3431Z" fill="white"/>
<path d="M4.86646 59.4652H5.81249V59.8587C5.96394 59.6925 6.15052 59.5621 6.35867 59.477C6.56683 59.3919 6.79133 59.3543 7.01585 59.3668C7.30522 59.3495 7.59492 59.3946 7.8653 59.4992C8.13567 59.6037 8.38039 59.7652 8.58284 59.9727C8.78529 60.1801 8.94073 60.4288 9.03861 60.7016C9.13649 60.9745 9.17452 61.2652 9.15012 61.554C9.17207 61.851 9.13228 62.1493 9.03328 62.4302C8.93427 62.711 8.77819 62.9683 8.57485 63.1859C8.37152 63.4034 8.12534 63.5765 7.85182 63.6942C7.5783 63.812 7.28336 63.8718 6.98558 63.8699C6.57539 63.9028 6.16843 63.7753 5.85033 63.5142V65.4593H4.86646V59.4652ZM5.81249 60.9789V62.4925C5.92305 62.6628 6.07618 62.8013 6.25672 62.8942C6.43725 62.9872 6.63894 63.0313 6.84178 63.0223C7.01824 63.0283 7.19396 62.9968 7.35735 62.9299C7.52074 62.863 7.66809 62.7622 7.78967 62.6342C7.91126 62.5062 8.00431 62.3538 8.0627 62.1872C8.12109 62.0206 8.14348 61.8435 8.1284 61.6676C8.1284 60.7896 7.65916 60.2826 6.9099 60.2826C6.68159 60.2775 6.45667 60.3384 6.26205 60.4578C6.06742 60.5773 5.91135 60.7503 5.81249 60.9561V60.9789Z" fill="white"/>
<path d="M11.9202 59.3668C12.5223 59.3668 13.0998 59.606 13.5256 60.0318C13.9514 60.4576 14.1906 61.0351 14.1906 61.6373C14.1906 62.2395 13.9514 62.817 13.5256 63.2428C13.0998 63.6686 12.5223 63.9078 11.9202 63.9078C11.318 63.9078 10.7405 63.6686 10.3147 63.2428C9.88887 62.817 9.64966 62.2395 9.64966 61.6373C9.64966 61.0351 9.88887 60.4576 10.3147 60.0318C10.7405 59.606 11.318 59.3668 11.9202 59.3668ZM11.9202 62.9844C12.101 62.9945 12.2819 62.966 12.4509 62.9009C12.6199 62.8358 12.7732 62.7355 12.9006 62.6067C13.0279 62.4779 13.1265 62.3236 13.1897 62.1538C13.2529 61.9841 13.2794 61.8029 13.2673 61.6221C13.2768 61.4413 13.2487 61.2605 13.1848 61.0911C13.1208 60.9217 13.0225 60.7674 12.8959 60.6379C12.7692 60.5085 12.6172 60.4067 12.4492 60.339C12.2813 60.2713 12.1011 60.2392 11.9202 60.2447C11.5568 60.2447 11.2084 60.389 10.9515 60.6459C10.6946 60.9028 10.5503 61.2513 10.5503 61.6146C10.5503 61.9779 10.6946 62.3263 10.9515 62.5832C11.2084 62.8401 11.5568 62.9844 11.9202 62.9844Z" fill="white"/>
<path d="M14.9551 59.4652H15.8027L17.3164 61.4254L18.8301 59.4652H19.5869V63.7943H18.6636V61.1075L17.324 62.8406L15.9011 61.0772V63.7943H14.9551V59.4652Z" fill="white"/>
<path d="M20.5554 59.4652H21.509V60.7215H22.2659C23.666 60.7215 24.0974 61.4254 24.0974 62.2352C24.0974 63.045 23.6054 63.7867 22.1977 63.7867H20.5554V59.4652ZM21.509 61.607V62.9088H22.175C22.8638 62.9088 23.1059 62.6817 23.1059 62.2503C23.1059 61.8189 22.8486 61.607 22.1826 61.607H21.509ZM24.5364 59.4652H25.49V63.7943H24.5212L24.5364 59.4652Z" fill="white"/>
<path d="M26.4133 59.4652H27.3594V62.9088H28.6081V59.4652H29.5845V62.9088H30.8332V59.4652H31.7793V63.7943H26.4133V59.4652Z" fill="white"/>
<path d="M35.6391 60.3431H34.1255V61.0242C34.1255 63.2947 33.3686 63.9153 32.3015 63.8245L32.2258 62.9466C32.6799 62.9466 33.1946 62.7044 33.1946 60.6761V59.4652H36.623V63.7943H35.6391V60.3431Z" fill="white"/>
<path d="M41.4139 62.9844C41.2154 63.2639 40.9518 63.4906 40.6458 63.6449C40.3398 63.7993 40.0007 63.8765 39.658 63.8699C39.3513 63.8942 39.0429 63.8525 38.7536 63.7477C38.4643 63.6429 38.2007 63.4774 37.9806 63.2623C37.7606 63.0473 37.5891 62.7876 37.4776 62.5008C37.3662 62.214 37.3174 61.9067 37.3345 61.5994C37.3101 61.299 37.3506 60.9968 37.4531 60.7133C37.5557 60.4298 37.7179 60.1717 37.9289 59.9564C38.1399 59.7411 38.3947 59.5736 38.6761 59.4654C38.9574 59.3571 39.2587 59.3106 39.5596 59.3289C39.826 59.3131 40.0927 59.3528 40.3429 59.4457C40.593 59.5385 40.8211 59.6824 41.0126 59.8682C41.2041 60.054 41.3548 60.2777 41.4552 60.5249C41.5555 60.7721 41.6033 61.0376 41.5955 61.3043C41.5882 61.5094 41.5706 61.714 41.5425 61.9173H38.326C38.3711 62.2325 38.5386 62.5173 38.7921 62.71C39.0457 62.9026 39.3649 62.9876 39.6807 62.9466C39.9042 62.9478 40.1248 62.8963 40.3246 62.7964C40.5245 62.6965 40.698 62.5509 40.8311 62.3714L41.4139 62.9844ZM38.3336 61.1302H40.6041C40.5937 60.9984 40.557 60.8701 40.4963 60.7527C40.4355 60.6353 40.3519 60.5312 40.2504 60.4466C40.1489 60.362 40.0314 60.2985 39.905 60.2599C39.7786 60.2214 39.6457 60.2085 39.5142 60.222C39.2407 60.204 38.9699 60.2863 38.7526 60.4534C38.5353 60.6206 38.3863 60.8612 38.3336 61.1302Z" fill="white"/>
<path d="M45.3418 62.0384H43.2605V63.7943H42.3069V59.4652H43.2605V61.1605H45.3418V59.4652H46.2878V63.7943H45.3418V62.0384Z" fill="white"/>
<path d="M50.2612 62.0384H48.1799V63.7943H47.2263V59.4652H48.1799V61.1605H50.2612V59.4652H51.2073V63.7943H50.2612V62.0384Z" fill="white"/>
<path d="M52.1533 59.4652H53.0994V60.7215H53.8562C55.2563 60.7215 55.6877 61.4254 55.6877 62.2352C55.6877 63.045 55.1958 63.7867 53.7881 63.7867H52.1533V59.4652ZM53.0994 61.607V62.9088H53.8032C54.4919 62.9088 54.7341 62.6817 54.7341 62.2503C54.7341 61.8189 54.4768 61.607 53.8108 61.607H53.0994ZM56.1267 59.4652H57.0803V63.7943H56.1115L56.1267 59.4652Z" fill="white"/>
<path d="M58.0034 63.7943V59.4652H58.9495V62.2882L61.2199 59.4652H62.0449V63.7943H61.1216V60.9789L58.8511 63.7943H58.0034ZM59.5171 57.6261C59.5134 57.7042 59.5267 57.7822 59.5558 57.8548C59.585 57.9274 59.6295 57.9928 59.6862 58.0466C59.743 58.1005 59.8106 58.1415 59.8846 58.1669C59.9586 58.1923 60.0371 58.2014 60.115 58.1937C60.1916 58.2021 60.2691 58.1932 60.3417 58.1676C60.4144 58.1421 60.4804 58.1005 60.5349 58.046C60.5894 57.9916 60.631 57.9255 60.6565 57.8529C60.6821 57.7802 60.691 57.7027 60.6826 57.6261H61.553C61.5162 57.9859 61.3472 58.3193 61.0788 58.5617C60.8104 58.8041 60.4615 58.9383 60.0998 58.9383C59.7381 58.9383 59.3893 58.8041 59.1209 58.5617C58.8524 58.3193 58.6835 57.9859 58.6467 57.6261H59.5171Z" fill="white"/>
<path d="M64.8452 59.4652H65.7913V61.2437L67.6682 59.4879H68.9397L66.8281 61.4405L69.0154 63.817H67.7969L66.1091 62.0006L65.7913 62.3109V63.8245H64.8452V59.4652Z" fill="white"/>
<path d="M72.6179 60.3431H71.1042V61.0242C71.1042 63.2947 70.3474 63.9153 69.2803 63.8245L69.2046 62.9466C69.6663 62.9466 70.1733 62.7044 70.1733 60.6761V59.4652H73.5866V63.7943H72.633L72.6179 60.3431Z" fill="white"/>
<path d="M74.51 60.0025C75.0166 59.5743 75.6633 59.3479 76.3264 59.3668C76.5658 59.3416 76.8078 59.3704 77.0346 59.451C77.2615 59.5316 77.4674 59.662 77.6372 59.8326C77.8071 60.0031 77.9366 60.2096 78.0162 60.4368C78.0958 60.6639 78.1236 60.9061 78.0974 61.1454V63.7943H77.1438V63.3175C76.9712 63.4963 76.7624 63.636 76.5314 63.7274C76.3003 63.8188 76.0524 63.8597 75.8042 63.8472C75.6091 63.8718 75.4111 63.8548 75.2231 63.7974C75.0351 63.7399 74.8614 63.6433 74.7134 63.5139C74.5654 63.3845 74.4465 63.2253 74.3645 63.0466C74.2825 62.8679 74.2392 62.674 74.2375 62.4774C74.2375 61.5086 75.1155 61.1075 76.2659 61.1075C76.5648 61.1047 76.8628 61.1429 77.1513 61.221C77.1513 60.5929 76.9243 60.2447 76.2204 60.2447C75.7649 60.2454 75.3246 60.4092 74.9792 60.7064L74.51 60.0025ZM77.1438 62.432V62.0006C76.8976 61.9295 76.6431 61.8914 76.3869 61.887C75.7058 61.887 75.2441 62.0308 75.2441 62.4622C75.2441 62.8936 75.562 63.0147 76.0464 63.0147C76.2632 63.0161 76.4771 62.9635 76.6686 62.8618C76.8602 62.7601 77.0234 62.6124 77.1438 62.432Z" fill="white"/>
<path d="M82.9412 62.8028C82.7596 63.1335 82.4906 63.4079 82.1636 63.5961C81.8366 63.7843 81.4641 63.879 81.0869 63.8699C80.7888 63.8734 80.4928 63.8181 80.216 63.7072C79.9392 63.5963 79.687 63.432 79.4737 63.2236C79.2604 63.0153 79.0902 62.7669 78.9729 62.4928C78.8556 62.2186 78.7934 61.9241 78.7899 61.6259C78.7865 61.3277 78.8418 61.0318 78.9526 60.755C79.0635 60.4782 79.2279 60.226 79.4362 60.0127C79.6446 59.7994 79.893 59.6292 80.1671 59.5119C80.4412 59.3946 80.7358 59.3324 81.034 59.3289C81.4032 59.3031 81.7724 59.3808 82.1 59.5533C82.4275 59.7258 82.7005 59.9862 82.8882 60.3052L82.1843 60.7745C82.0657 60.5917 81.9013 60.4431 81.7074 60.3435C81.5136 60.2439 81.2971 60.1968 81.0794 60.2069C80.8984 60.2001 80.718 60.2314 80.5499 60.2988C80.3818 60.3661 80.2297 60.468 80.1034 60.5979C79.9772 60.7277 79.8796 60.8826 79.8169 61.0525C79.7543 61.2224 79.728 61.4036 79.7398 61.5843C79.7361 61.7707 79.7714 61.9558 79.8434 62.1278C79.9154 62.2998 80.0225 62.4549 80.1578 62.5831C80.2932 62.7113 80.4538 62.8099 80.6294 62.8725C80.805 62.9351 80.9918 62.9603 81.1777 62.9466C81.3968 62.9469 81.6123 62.8907 81.8032 62.7833C81.9942 62.6759 82.1541 62.521 82.2676 62.3336L82.9412 62.8028Z" fill="white"/>
<path d="M83.2061 59.4652H87.2854V60.3431H85.7187V63.7943H84.7727V60.3431H83.2061V59.4652Z" fill="white"/>
<path d="M91.6446 62.9844C91.4462 63.2639 91.1825 63.4906 90.8765 63.6449C90.5705 63.7993 90.2314 63.8765 89.8887 63.8699C89.582 63.8942 89.2736 63.8525 88.9843 63.7477C88.695 63.6429 88.4314 63.4774 88.2114 63.2623C87.9913 63.0473 87.8198 62.7876 87.7083 62.5008C87.5969 62.214 87.5481 61.9067 87.5653 61.5994C87.5408 61.299 87.5813 60.9968 87.6838 60.7133C87.7864 60.4298 87.9486 60.1717 88.1596 59.9564C88.3706 59.7411 88.6254 59.5736 88.9068 59.4654C89.1881 59.3571 89.4895 59.3106 89.7903 59.3289C90.0564 59.313 90.3228 59.3527 90.5725 59.4457C90.8223 59.5386 91.0499 59.6826 91.2409 59.8685C91.4318 60.0545 91.5818 60.2782 91.6813 60.5254C91.7808 60.7727 91.8276 61.0379 91.8186 61.3043C91.8146 61.5093 91.7995 61.7139 91.7732 61.9173H88.5416C88.5849 62.2319 88.7508 62.5167 89.0031 62.7095C89.2555 62.9023 89.5738 62.9875 89.8887 62.9466C90.1133 62.9484 90.3352 62.8972 90.5364 62.7973C90.7376 62.6974 90.9124 62.5515 91.0467 62.3714L91.6446 62.9844ZM88.5643 61.1302H90.8348C90.8244 60.9984 90.7877 60.8701 90.727 60.7527C90.6662 60.6353 90.5827 60.5312 90.4811 60.4466C90.3796 60.362 90.2621 60.2985 90.1357 60.2599C90.0093 60.2214 89.8764 60.2085 89.7449 60.222C89.4689 60.2001 89.1944 60.2806 88.9739 60.4481C88.7534 60.6156 88.6022 60.8584 88.5491 61.1302H88.5643Z" fill="white"/>
<path d="M92.5225 59.4652H93.4761V59.8587C93.6267 59.6935 93.812 59.5637 94.0188 59.4786C94.2255 59.3936 94.4486 59.3554 94.6719 59.3668C94.9581 59.3551 95.2436 59.4043 95.5094 59.5114C95.7752 59.6184 96.0151 59.7807 96.2134 59.9876C96.4117 60.1944 96.5637 60.441 96.6593 60.7111C96.755 60.9812 96.7921 61.2685 96.7683 61.554C96.7914 61.8512 96.7524 62.15 96.6538 62.4314C96.5552 62.7127 96.3992 62.9705 96.1956 63.1883C95.9921 63.4061 95.7454 63.5792 95.4714 63.6965C95.1973 63.8139 94.9019 63.8729 94.6037 63.8699C94.1957 63.904 93.7907 63.7763 93.4761 63.5142V65.4593H92.5225V59.4652ZM93.4761 60.9788V62.4925C93.5848 62.6627 93.7366 62.8013 93.9159 62.8943C94.0953 62.9873 94.296 63.0315 94.4978 63.0223C94.6742 63.0283 94.85 62.9968 95.0134 62.9299C95.1767 62.863 95.3241 62.7622 95.4457 62.6342C95.5673 62.5062 95.6603 62.3538 95.7187 62.1872C95.7771 62.0206 95.7995 61.8435 95.7844 61.6675C95.7844 60.7896 95.3227 60.2825 94.5735 60.2825C94.345 60.2765 94.1197 60.337 93.9249 60.4566C93.7301 60.5761 93.5742 60.7497 93.4761 60.9561V60.9788Z" fill="white"/>
<path d="M0.953613 69.2434H2.24779V75.7446L9.15009 69.2434H10.8378L4.68479 75.0332L11.3146 81.9582H9.56635L3.76902 75.9035L2.25536 77.3037V81.9733H0.953613V69.2434Z" fill="white"/>
<path d="M16.1584 72.2783C16.8369 72.2251 17.519 72.3127 18.162 72.5358C18.8049 72.7588 19.3948 73.1125 19.8945 73.5745C20.3942 74.0365 20.793 74.5969 21.0657 75.2204C21.3384 75.844 21.4791 76.5172 21.4791 77.1977C21.4791 77.8783 21.3384 78.5515 21.0657 79.175C20.793 79.7985 20.3942 80.3589 19.8945 80.8209C19.3948 81.2829 18.8049 81.6366 18.162 81.8597C17.519 82.0827 16.8369 82.1704 16.1584 82.1171C15.4799 82.1704 14.7978 82.0827 14.1548 81.8597C13.5118 81.6366 12.922 81.2829 12.4223 80.8209C11.9226 80.3589 11.5238 79.7985 11.2511 79.175C10.9784 78.5515 10.8376 77.8783 10.8376 77.1977C10.8376 76.5172 10.9784 75.844 11.2511 75.2204C11.5238 74.5969 11.9226 74.0365 12.4223 73.5745C12.922 73.1125 13.5118 72.7588 14.1548 72.5358C14.7978 72.3127 15.4799 72.2251 16.1584 72.2783ZM16.1584 81.0121C16.6575 81.0307 17.1551 80.9451 17.6193 80.7607C18.0836 80.5763 18.5042 80.2972 18.8546 79.9411C19.2049 79.5851 19.4772 79.1599 19.6541 78.6928C19.831 78.2257 19.9086 77.7268 19.882 77.228C19.8701 76.4942 19.6416 75.7804 19.2252 75.176C18.8089 74.5717 18.2233 74.1039 17.5419 73.8313C16.8605 73.5587 16.1138 73.4936 15.3955 73.644C14.6773 73.7945 14.0195 74.1538 13.5047 74.6769C12.99 75.2 12.6414 75.8635 12.5025 76.5841C12.3637 77.3047 12.4409 78.0503 12.7244 78.7271C13.0079 79.404 13.4851 79.982 14.0961 80.3886C14.7071 80.7951 15.4245 81.0121 16.1584 81.0121Z" fill="white"/>
<path d="M22.894 72.5129H23.999L27.8664 77.508L31.6506 72.5129H32.6874V81.9582H31.5219V74.5488L27.8664 79.3244L24.0823 74.5488V81.9582H22.894V72.5129Z" fill="white"/>
<path d="M42.1252 73.6406H36.2143V81.9658H35.0337V72.5129H43.3059V81.9582H42.1252V73.6406Z" fill="white"/>
<path d="M50.019 72.2783C50.993 72.2873 51.9426 72.5843 52.748 73.1319C53.5535 73.6796 54.1789 74.4533 54.5455 75.3558C54.912 76.2582 55.0032 77.2489 54.8077 78.2031C54.6122 79.1573 54.1387 80.0323 53.4469 80.7179C52.755 81.4034 51.8757 81.8689 50.9197 82.0557C49.9638 82.2424 48.974 82.1421 48.0749 81.7673C47.1759 81.3925 46.4079 80.76 45.8677 79.9496C45.3274 79.1391 45.0391 78.1869 45.0391 77.2129C45.0131 76.554 45.1245 75.897 45.3662 75.2835C45.6079 74.67 45.9746 74.1136 46.4429 73.6495C46.9113 73.1854 47.4711 72.8238 48.0868 72.5877C48.7024 72.3517 49.3605 72.2463 50.019 72.2783ZM50.019 81.0122C50.5182 81.0308 51.0158 80.9451 51.48 80.7607C51.9442 80.5763 52.3649 80.2972 52.7152 79.9411C53.0656 79.5851 53.3379 79.16 53.5148 78.6928C53.6917 78.2257 53.7693 77.7268 53.7426 77.228C53.7307 76.4943 53.5022 75.7804 53.0859 75.176C52.6695 74.5717 52.0839 74.1039 51.4026 73.8313C50.7212 73.5587 49.9745 73.4936 49.2562 73.644C48.5379 73.7945 47.8801 74.1538 47.3654 74.6769C46.8507 75.2 46.502 75.8635 46.3632 76.5841C46.2243 77.3047 46.3015 78.0503 46.585 78.7272C46.8686 79.404 47.3458 79.982 47.9567 80.3886C48.5677 80.7951 49.2852 81.0121 50.019 81.0122Z" fill="white"/>
<path d="M55.7861 80.051L56.7246 79.3774C57.0735 79.9153 57.5581 80.3517 58.1294 80.6427C58.7008 80.9337 59.3387 81.0689 59.979 81.0348C61.5986 81.0348 62.9003 80.3234 62.9003 79.1579C62.9003 78.1816 62.1435 77.6897 60.7434 77.6897H58.4729V76.5998H60.6147C60.8451 76.6216 61.0775 76.5975 61.2984 76.5288C61.5194 76.4602 61.7245 76.3483 61.9019 76.1998C62.0793 76.0512 62.2255 75.8689 62.3319 75.6635C62.4383 75.458 62.5029 75.2335 62.5219 75.0029C62.5219 73.9282 61.3791 73.3833 59.8882 73.3833C59.33 73.3715 58.7769 73.4898 58.2724 73.7289C57.768 73.968 57.3261 74.3212 56.9819 74.7607L56.0964 74.1855C56.5439 73.5618 57.1407 73.0603 57.8323 72.7271C58.5239 72.3939 59.288 72.2396 60.0547 72.2783C62.4008 72.2783 63.7934 73.2546 63.7934 74.7834C63.8046 75.2219 63.6911 75.6546 63.466 76.0311C63.2409 76.4076 62.9135 76.7124 62.5219 76.9101C63.7934 77.4323 64.1415 78.1437 64.1415 79.1049C64.1415 81.0651 62.2873 82.1322 60.1076 82.1322C57.928 82.1322 56.5657 81.2846 55.7861 80.051Z" fill="white"/>
<path d="M65.988 81.9582V72.5129H67.1687V80.2175L73.405 72.5129H74.5478V81.9582H73.3671V74.2764L67.1384 81.9582H65.988Z" fill="white"/>
<path d="M75.7512 72.5129H84.4169V73.6406H80.6328V81.9658H79.4521V73.6406H75.7512V72.5129Z" fill="white"/>
<path d="M85.6431 72.5129H86.8237V75.6235H89.132C92.0534 75.6235 92.9162 77.0539 92.9162 78.7795C92.9162 80.5051 91.9323 81.9809 88.9504 81.9809H85.6279L85.6431 72.5129ZM86.8237 76.7285V80.8305H88.9353C90.9484 80.8305 91.675 80.0737 91.675 78.7795C91.675 77.4853 90.9182 76.7285 88.9504 76.7285H86.8237ZM94.5434 72.5129H95.7241V81.9582H94.5434V72.5129Z" fill="white"/>
<path d="M8.89276 87.7328C7.42451 88.3307 4.93454 87.9826 3.59495 88.641C1.72558 89.5644 1.3623 91.4716 1.3623 92.9625C2.11913 91.5775 3.79172 90.9267 5.46432 90.9267C8.17377 90.9267 9.95233 92.6144 9.95233 95.4677C9.96986 96.1043 9.85802 96.7379 9.62357 97.3301C9.38912 97.9223 9.03695 98.4607 8.58837 98.9128C8.13978 99.3649 7.60412 99.7213 7.01381 99.9604C6.42349 100.2 5.79079 100.316 5.15402 100.304C2.1267 100.304 0.211914 98.3058 0.211914 94.6351C0.211914 91.1991 0.597898 88.9286 3.08787 87.6799C4.7756 86.8246 7.13692 87.1879 8.73383 86.6279L8.89276 87.7328ZM1.44555 94.9379C1.44555 97.6473 3.00462 99.1913 5.11618 99.1913C5.59224 99.1956 6.06425 99.1036 6.50378 98.9206C6.94331 98.7377 7.34125 98.4676 7.67362 98.1268C8.00599 97.7859 8.26591 97.3813 8.43771 96.9373C8.60952 96.4933 8.68965 96.0191 8.67328 95.5433C8.71396 95.0736 8.65111 94.6007 8.48918 94.1579C8.32724 93.715 8.07016 93.3131 7.73605 92.9805C7.40193 92.6478 6.99892 92.3925 6.55542 92.2324C6.11191 92.0724 5.63871 92.0116 5.16916 92.0543C4.32307 92.0397 3.49649 92.3091 2.8215 92.8195C2.14651 93.3298 1.66205 94.0517 1.44555 94.8698V94.9379Z" fill="white"/>
<path d="M19.935 98.3285C19.5301 98.9586 18.9685 99.4726 18.3051 99.8202C17.6417 100.168 16.8994 100.337 16.1508 100.311C13.1235 100.311 11.1406 98.389 11.1406 95.3844C11.1406 92.6068 12.8132 90.4499 15.9162 90.4499C16.4897 90.4188 17.0634 90.5079 17.6004 90.7114C18.1375 90.9149 18.6261 91.2283 19.0351 91.6316C19.444 92.0348 19.7643 92.519 19.9753 93.0532C20.1863 93.5873 20.2834 94.1597 20.2604 94.7335C20.254 95.0727 20.2288 95.4113 20.1848 95.7477H12.4197C12.4197 97.9349 14.0696 99.1837 16.2038 99.1837C16.777 99.1721 17.3393 99.0248 17.8445 98.7538C18.3497 98.4828 18.7834 98.0958 19.1101 97.6246L19.935 98.3285ZM12.3667 94.6578H18.989C19.0128 94.2389 18.9469 93.8197 18.7955 93.4283C18.6441 93.0369 18.4108 92.6824 18.1112 92.3886C17.8116 92.0947 17.4527 91.8683 17.0585 91.7245C16.6642 91.5807 16.2438 91.5229 15.8254 91.5548C14.9631 91.5215 14.1218 91.8266 13.4813 92.4049C12.8407 92.9832 12.4516 93.789 12.397 94.6503L12.3667 94.6578Z" fill="white"/>
<path d="M21.1987 98.215L22.1448 97.5414C22.4919 98.0792 22.9751 98.5158 23.5452 98.8068C24.1154 99.0979 24.7523 99.2331 25.3916 99.1988C27.0112 99.1988 28.3205 98.4874 28.3205 97.3219C28.3205 96.3456 27.5637 95.8536 26.156 95.8536H23.8855V94.7638H26.0652C26.2955 94.7856 26.5279 94.7615 26.7489 94.6928C26.9698 94.6241 27.1749 94.5123 27.3524 94.3637C27.5298 94.2152 27.6759 94.0329 27.7823 93.8275C27.8888 93.622 27.9534 93.3975 27.9724 93.1669C27.9724 92.0922 26.8296 91.5473 25.3386 91.5473C24.7804 91.5349 24.227 91.6529 23.7225 91.8921C23.2179 92.1312 22.7762 92.4848 22.4324 92.9247L21.5393 92.3495C21.9872 91.7263 22.5842 91.2252 23.2756 90.892C23.9671 90.5589 24.731 90.4042 25.4975 90.4423C27.8437 90.4423 29.2817 91.4186 29.2817 92.9474C29.2911 93.3856 29.1768 93.8175 28.9519 94.1937C28.727 94.5698 28.4006 94.875 28.0102 95.0741C28.484 95.2048 28.8987 95.494 29.1851 95.8933C29.4716 96.2927 29.6125 96.7782 29.5844 97.2689C29.5844 99.2291 27.7378 100.296 25.5581 100.296C23.3784 100.296 22.0161 99.4486 21.1987 98.215Z" fill="white"/>
<path d="M36.8879 90.6769H43.6313V91.8046H38.0686V100.13H36.8879V90.6769Z" fill="white"/>
<path d="M44.8499 90.6769H46.0305V92.077C46.4012 91.537 46.9058 91.1025 47.4948 90.8159C48.0838 90.5294 48.7371 90.4006 49.3908 90.4423C52.1684 90.4423 53.8561 92.4176 53.8561 95.2179C53.8561 98.0181 51.9338 100.304 49.1487 100.304C48.5782 100.354 48.0036 100.279 47.465 100.084C46.9265 99.8896 46.4369 99.5796 46.0305 99.1761V103.717H44.8499V90.6769ZM46.0305 93.7874V97.4581C46.3349 98.0009 46.7859 98.447 47.332 98.7455C47.8781 99.044 48.4972 99.1827 49.1184 99.1458C51.1315 99.1458 52.6074 97.5338 52.6074 95.2784C52.6074 93.0231 51.3283 91.5321 49.2773 91.5321C48.571 91.5334 47.8819 91.7499 47.3018 92.1529C46.7217 92.5558 46.2783 93.126 46.0305 93.7874Z" fill="white"/>
<path d="M55.5666 91.7667C56.5931 90.9171 57.8821 90.4491 59.2146 90.4423C61.7954 90.4423 63.1047 91.8348 63.1047 94.2264V100.092H61.924V98.5328C61.5196 99.0967 60.9796 99.5497 60.354 99.8499C59.7284 100.15 59.0372 100.288 58.3442 100.251C56.3083 100.251 54.9309 99.1383 54.9309 97.4354C54.9309 95.4146 56.6413 94.5594 59.5249 94.5594C60.3278 94.572 61.1271 94.671 61.9089 94.8546C61.9089 92.9095 61.3413 91.5624 59.0556 91.5624C58.0001 91.5925 56.9871 91.9854 56.1873 92.6749L55.5666 91.7667ZM61.924 97.0645V95.9368C61.201 95.7426 60.4552 95.6459 59.7065 95.6493C57.542 95.6493 56.1797 96.0655 56.1797 97.3748C56.1797 98.5025 57.2317 99.1761 58.6848 99.1761C59.3712 99.1671 60.0408 98.9621 60.6147 98.5854C61.1886 98.2086 61.6429 97.6757 61.924 97.0494V97.0645Z" fill="white"/>
<path d="M72.5195 95.8687H66.5102V100.122H65.3296V90.6769H66.5102V94.7411H72.5195V90.6769H73.7001V100.122H72.5195V95.8687Z" fill="white"/>
<path d="M76.0312 100.122V90.6769H77.2119V98.3814L83.4406 90.6769H84.591V100.122H83.4104V92.4403L77.1741 100.122H76.0312Z" fill="white"/>
<path d="M86.9146 90.6769H88.0952V99.002H93.9152V90.6769H95.0959V99.002H96.4809V102.491H95.3532V100.13H86.9146V90.6769Z" fill="white"/>
<path d="M152.267 8.00069L156.952 6.54757L161.44 8.28071L166.51 3.30077L151.079 1L152.267 8.00069Z" stroke="white" stroke-width="0.75" stroke-linecap="round" stroke-linejoin="bevel"/>
<path d="M133.717 40.6579L118.701 41.5737L121.191 26.8155L133.717 40.6579Z" stroke="white" stroke-width="0.75" stroke-linecap="round" stroke-linejoin="bevel"/>
<path d="M149.421 48.6122L141.452 46.5082L134.776 43.602L133.717 40.6579L137.864 36.397L149.421 48.6122Z" stroke="white" stroke-width="0.75" stroke-linecap="round" stroke-linejoin="bevel"/>
<path d="M155.029 47.1364L160.985 50.4362L150.344 49.4901L149.421 48.6122L137.864 36.397L137.849 36.4045L155.029 47.1364Z" stroke="white" stroke-width="0.75" stroke-linecap="round" stroke-linejoin="bevel"/>
<path d="M151.517 44.9416L137.849 36.4046L139.946 34.2552L145.417 38.6599L152.501 44.4875L151.517 44.9416Z" stroke="white" stroke-width="0.75" stroke-linecap="round" stroke-linejoin="bevel"/>
<path d="M145.417 38.6599L161.303 46.5839L155.029 47.1364L151.518 44.9416L152.501 44.4875L145.417 38.6599Z" stroke="white" stroke-width="0.75" stroke-linecap="round" stroke-linejoin="bevel"/>
<path d="M134.776 43.602L118.678 41.6721L118.701 41.5737L133.717 40.6504L134.776 43.602Z" stroke="white" stroke-width="0.75" stroke-linecap="round" stroke-linejoin="bevel"/>
<path d="M169.553 59.6998L141.452 46.5082L134.776 43.602L118.678 41.6721L146.174 51.6698L165.504 62.4395L155.347 54.9091L169.553 59.6998Z" stroke="white" stroke-width="0.75" stroke-linecap="round" stroke-linejoin="bevel"/>
<path d="M146.749 26.9366L139.945 34.2552L133.717 40.658L121.191 26.8155L121.237 26.7171L134.86 13.3969L146.749 26.9366Z" stroke="white" stroke-width="0.75" stroke-linecap="round" stroke-linejoin="bevel"/>
<path d="M158.67 21.2376L146.749 26.9366L134.86 13.3969L156.952 6.54755L158.67 21.2376Z" stroke="white" stroke-width="0.75" stroke-linecap="round" stroke-linejoin="bevel"/>
<path d="M158.669 21.2376L171.18 12.4206L161.439 8.28069L156.951 6.54755L158.669 21.2376Z" stroke="white" stroke-width="0.75" stroke-linecap="round" stroke-linejoin="bevel"/>
<path d="M133.815 14.4186L121.237 26.7171L130.152 8.8786L133.815 14.4186Z" stroke="white" stroke-width="0.75" stroke-linecap="round" stroke-linejoin="bevel"/>
<path d="M151.078 1L130.152 8.87104L133.815 14.4186L134.86 13.3969L152.267 8.00069L151.078 1Z" stroke="white" stroke-width="0.75" stroke-linecap="round" stroke-linejoin="bevel"/>
<path d="M100.151 27.4967L110.3 25.2262L101.778 33.0896L87.4138 30.5391L100.151 27.4967Z" stroke="white" stroke-width="0.75" stroke-linecap="round" stroke-linejoin="bevel"/>
<path d="M82.3356 25.4456L100.151 27.4966L87.414 30.5391L75.5771 27.5345L82.3356 25.4456Z" stroke="white" stroke-width="0.75" stroke-linecap="round" stroke-linejoin="bevel"/>
<path d="M72.7541 26.4749L63.9143 24.3785L72.7541 24.492V26.4749Z" stroke="white" stroke-width="0.75" stroke-linecap="round" stroke-linejoin="bevel"/>
<path d="M118.679 41.6721L101.779 33.0896L110.3 25.2262H110.255L118.679 41.6721Z" stroke="white" stroke-width="0.75" stroke-linecap="round" stroke-linejoin="bevel"/>
<path d="M110.255 25.2262L121.191 26.8155L118.679 41.6721L110.255 25.2262Z" stroke="white" stroke-width="0.75" stroke-linecap="round" stroke-linejoin="bevel"/>
<path d="M80.2922 24.4088L81.4955 23.1222L72.7542 24.4921V26.475L75.5771 27.5345L77.9536 26.8004L82.3356 25.4457L80.2922 24.4088Z" stroke="white" stroke-width="0.75" stroke-linecap="round" stroke-linejoin="bevel"/>
</svg>
