<svg width="149" height="86" viewBox="0 0 149 86" fill="none" xmlns="http://www.w3.org/2000/svg">
<path d="M122.492 9.70578L128.977 7.69117L135.199 10.094L142.239 3.18979L120.834 0L122.492 9.70578Z" fill="#C789AB"/>
<path d="M96.7744 54.9819L75.9463 56.2515L79.3984 35.7906L96.7744 54.9819Z" fill="#C789AB"/>
<path d="M118.536 66.0099L107.498 63.0929L98.2434 59.0637L96.7744 54.982L102.514 49.0746L118.536 66.0099Z" fill="#8AB531"/>
<path d="M126.311 63.9638L134.569 68.5386L119.816 67.227L118.536 66.0099L102.514 49.0746L102.503 49.0851L126.311 63.9638Z" fill="#C7D62C"/>
<path d="M121.443 60.9208L102.503 49.085L105.41 46.1051L112.996 52.2119L122.807 60.2913L121.443 60.9208Z" fill="#405586"/>
<path d="M112.996 52.2118L135.02 63.1977L126.311 63.9637L121.443 60.9208L122.807 60.2912L112.996 52.2118Z" fill="#A9C5AB"/>
<path d="M98.2436 59.0636L75.9255 56.388L75.9465 56.2516L96.7746 54.9819L98.2436 59.0636Z" fill="#B5C9E5"/>
<path d="M114.046 70.2488L75.9255 56.3879L98.2436 59.0636L107.498 63.0928L146.447 81.3816L126.752 74.7397L114.046 70.2488Z" fill="#405586"/>
<path d="M126.752 74.7398L140.844 85.1801L114.045 70.2489L126.752 74.7398Z" fill="#A9C5AA"/>
<path d="M114.843 35.9586L105.41 46.1051L96.7744 54.982L79.3984 35.7908L79.4614 35.6648L98.3483 17.1871L114.843 35.9586Z" fill="#812A71"/>
<path d="M131.359 28.0576L114.843 35.9586L98.3484 17.1871L128.977 7.69116L131.359 28.0576Z" fill="#9DB8DD"/>
<path d="M131.358 28.0576L148.713 15.8335L135.199 10.094L128.977 7.69116L131.358 28.0576Z" fill="#E6CB2C"/>
<path d="M96.9003 18.6035L79.4614 35.6647L91.8219 10.9229L96.9003 18.6035Z" fill="#C789AB"/>
<path d="M120.834 0L91.8218 10.9229L96.9003 18.6036L98.3483 17.1871L122.492 9.70578L120.834 0Z" fill="#7691C6"/>
<path d="M50.2393 36.7351L64.2996 33.5978L52.4848 44.4892L32.5696 40.9532L50.2393 36.7351Z" fill="#8AB531"/>
<path d="M25.5392 33.8915L50.2391 36.735L32.5693 40.9531L16.1587 36.7875L25.5392 33.8915Z" fill="#E6CB2C"/>
<path d="M12.2554 32.5695L24.364 30.6808L22.6956 32.4541L12.2554 32.5695Z" fill="#CB8225"/>
<path d="M12.2554 32.5694L22.6956 32.454L25.5392 33.8915L19.4534 35.7697L12.2554 32.5694Z" fill="#812A71"/>
<path d="M12.2555 35.3186L0 32.4121L12.2555 32.5695V35.3186Z" fill="#812A71"/>
<path d="M75.9254 56.388L52.4846 44.4892L64.2994 33.5978L64.247 33.5873L75.9254 56.388Z" fill="#E6CB2C"/>
<path d="M64.2471 33.5873L79.3986 35.7908L75.9255 56.388L64.2471 33.5873Z" fill="#812A71"/>
<path d="M16.2531 34.647C16.3947 34.647 16.533 34.6892 16.6506 34.768C16.7681 34.8469 16.8596 34.959 16.9132 35.0899C16.9669 35.2209 16.9804 35.3649 16.952 35.5036C16.9236 35.6423 16.8546 35.7694 16.7538 35.8688C16.653 35.9681 16.5248 36.0352 16.3858 36.0616C16.2467 36.0879 16.1029 36.0723 15.9727 36.0167C15.8425 35.961 15.7318 35.8679 15.6547 35.7492C15.5776 35.6305 15.5375 35.4916 15.5396 35.35C15.5424 35.1626 15.6187 34.9838 15.7523 34.8523C15.8858 34.7207 16.0657 34.647 16.2531 34.647ZM12.2449 32.5485L19.4429 35.7592L16.1482 36.8085L12.2449 35.3395V32.5485Z" fill="#9DB8DD"/>
</svg>
