<svg width="20" height="17" viewBox="0 0 20 17" fill="none" xmlns="http://www.w3.org/2000/svg">
<path d="M17.2799 13.1482H8.96828C8.72806 13.1962 8.48783 13.2443 8.29566 13.3884C8.05544 13.5325 7.86326 13.7247 7.71913 13.9169L6.0376 16.8475H19.4418L17.2799 13.1482Z" fill="white"/>
<path d="M12.6196 11.9951C12.8598 12.1392 13.1481 12.2353 13.3883 12.2353H16.7514L10.0253 0.608704L7.86328 4.30807L11.947 11.3705C12.1392 11.6107 12.3314 11.851 12.6196 11.9951Z" fill="white"/>
<path d="M9.20825 8.92028C9.20825 8.63202 9.1602 8.34377 9.01607 8.10355L7.33454 5.22092L0.608398 16.8475H4.88431L8.91998 9.83311C9.1602 9.54485 9.20825 9.25659 9.20825 8.92028Z" fill="white"/>
</svg>
