<svg width="11" height="11" viewBox="0 0 11 11" fill="none" xmlns="http://www.w3.org/2000/svg">
<g clip-path="url(#clip0)">
<path d="M10.7534 8.69323L9.05461 6.99426C8.71625 6.65725 8.15591 6.66749 7.80575 7.01777L6.9499 7.87343C6.89583 7.84363 6.83987 7.8125 6.78102 7.77948C6.24056 7.48002 5.50085 7.06957 4.72245 6.29061C3.94175 5.51 3.53092 4.76915 3.23055 4.22834C3.19885 4.17105 3.16848 4.11581 3.13849 4.06335L3.71289 3.4898L3.99529 3.20705C4.34598 2.85627 4.35565 2.29609 4.01807 1.9581L2.3193 0.258946C1.98172 -0.0785655 1.42113 -0.0683264 1.07044 0.282458L0.591667 0.763981L0.604751 0.776969C0.444211 0.981815 0.31006 1.21807 0.210229 1.47285C0.118203 1.71537 0.0609084 1.94679 0.0347102 2.17868C-0.189602 4.03828 0.660181 5.73782 2.96638 8.04405C6.15425 11.2317 8.72326 10.9909 8.83409 10.9791C9.07547 10.9503 9.3068 10.8926 9.54188 10.8013C9.79445 10.7027 10.0305 10.5687 10.2353 10.4085L10.2457 10.4178L10.7308 9.94284C11.0807 9.59212 11.0908 9.03175 10.7534 8.69323Z" fill="#0162A7"/>
</g>
<defs>
<clipPath id="clip0">
<rect width="11" height="11" fill="white"/>
</clipPath>
</defs>
</svg>
