<svg width="12" height="11" viewBox="0 0 12 11" fill="none" xmlns="http://www.w3.org/2000/svg">
<path d="M5.76225 0.00454574C4.79045 -0.0348497 3.82541 0.18238 2.96423 0.634385C2.10304 1.08639 1.37609 1.75723 0.856498 2.57941C0.336908 3.40158 0.043011 4.3461 0.00437262 5.31793C-0.0342658 6.28976 0.183717 7.25462 0.636394 8.11545V8.27626L0.113761 10.608C0.105296 10.6423 0.106007 10.6782 0.115828 10.7121C0.125649 10.746 0.144232 10.7768 0.169704 10.8012C0.195176 10.8257 0.226638 10.843 0.260927 10.8514C0.295216 10.8598 0.331123 10.8591 0.365029 10.8492L2.73699 10.2462H2.9179C3.8008 10.7347 4.79343 10.9906 5.80245 10.9899C6.54835 11.0352 7.29561 10.9273 7.99828 10.673C8.70094 10.4187 9.34413 10.0233 9.88829 9.51118C10.4325 8.99903 10.8661 8.38095 11.1625 7.69498C11.4588 7.00901 11.6117 6.26964 11.6117 5.52237C11.6117 4.7751 11.4588 4.03574 11.1625 3.34976C10.8661 2.66379 10.4325 2.04572 9.88829 1.53357C9.34413 1.02142 8.70094 0.626019 7.99828 0.371708C7.29561 0.117397 6.54835 0.00954721 5.80245 0.0547946L5.76225 0.00454574Z" fill="#0162A7"/>
<path d="M3.36972 6.17574C3.64726 6.17574 3.87226 5.95075 3.87226 5.6732C3.87226 5.39566 3.64726 5.17067 3.36972 5.17067C3.09218 5.17067 2.86719 5.39566 2.86719 5.6732C2.86719 5.95075 3.09218 6.17574 3.36972 6.17574Z" fill="white" stroke="white" stroke-width="0.7"/>
<path d="M5.7623 6.17574C6.03984 6.17574 6.26483 5.95075 6.26483 5.6732C6.26483 5.39566 6.03984 5.17067 5.7623 5.17067C5.48476 5.17067 5.25977 5.39566 5.25977 5.6732C5.25977 5.95075 5.48476 6.17574 5.7623 6.17574Z" fill="white" stroke="white" stroke-width="0.7"/>
<path d="M8.22519 6.17574C8.50273 6.17574 8.72773 5.95075 8.72773 5.6732C8.72773 5.39566 8.50273 5.17067 8.22519 5.17067C7.94765 5.17067 7.72266 5.39566 7.72266 5.6732C7.72266 5.95075 7.94765 6.17574 8.22519 6.17574Z" fill="white" stroke="white" stroke-width="0.7"/>
</svg>
