<svg width="20" height="25" viewBox="0 0 20 25" fill="none" xmlns="http://www.w3.org/2000/svg">
<path d="M0 0.783465C0 0.204653 0.205021 -0.0002149 0.777834 -0.0002149C4.84593 -0.0002149 8.91402 -0.0002149 12.9821 -0.0002149C13.131 -0.00546082 13.2794 0.0201401 13.4178 0.0749586C13.5562 0.129777 13.6816 0.212613 13.786 0.318194C15.7377 2.18751 17.693 4.05353 19.6521 5.91626C19.7616 6.00995 19.8494 6.12608 19.9095 6.25667C19.9695 6.38726 20.0004 6.52922 20 6.67279C20 11.8126 20 16.9548 20 22.0995C20 23.5743 19.0159 24.7196 17.5621 24.9702C17.3882 24.9961 17.2124 25.0072 17.0365 25.0035C11.6016 25.0035 6.16716 25.0035 0.733101 25.0035C0.2249 25.0035 0.00497124 24.7801 0.00497124 24.263L0 0.783465ZM1.19409 23.8212H16.9309C18.1325 23.8212 18.8109 23.1449 18.8109 21.9416C18.8109 17.0873 18.8109 12.233 18.8109 7.37871V7.01464H18.4381C17.3832 7.01464 16.3258 7.02205 15.2709 7.01464C13.7699 7.00353 12.6677 5.90392 12.6615 4.42295C12.6615 3.45661 12.6615 2.49028 12.6615 1.52395V1.20801H1.19409V23.8212ZM13.8506 2.02748C13.8297 2.06648 13.8139 2.10795 13.8034 2.15089C13.8034 2.95185 13.7773 3.75528 13.8121 4.55253C13.8469 5.34979 14.4458 5.86689 15.2448 5.87306C16.0437 5.87923 16.8365 5.87306 17.6317 5.87306C17.7063 5.87306 17.7808 5.85825 17.8989 5.84591L13.8506 2.02748Z" fill="#0162A7"/>
<path d="M10.7133 7.0383C10.6791 7.15505 10.6874 7.28005 10.7369 7.39127C11.1756 8.28108 11.6962 9.11906 12.4082 9.82376C12.4727 9.89581 12.5544 9.95062 12.6458 9.98318C12.7372 10.0157 12.8353 10.025 12.9313 10.0101C13.3214 9.96569 13.7141 9.93977 14.1067 9.9299C14.2922 9.92442 14.4772 9.95115 14.6534 10.0089C15.1045 10.1619 15.3853 10.5741 15.3344 10.9666C15.2962 11.1865 15.1842 11.3872 15.0166 11.5358C14.8489 11.6844 14.6355 11.7721 14.4111 11.7848C13.7891 11.8526 13.1614 11.723 12.6182 11.4146C12.501 11.3429 12.3708 11.2951 12.2349 11.2739C12.099 11.2527 11.9602 11.2586 11.8267 11.2912C10.9469 11.4775 10.0622 11.6429 9.17879 11.8107C9.08371 11.8258 8.99348 11.8627 8.9152 11.9184C8.83693 11.9741 8.77275 12.0471 8.72774 12.1316C8.29376 12.8847 7.6802 13.5204 6.94097 13.9828C6.61919 14.1839 6.26075 14.3202 5.88604 14.3839C5.03366 14.5073 4.46333 13.8076 4.6932 12.9782C4.74691 12.7618 4.84773 12.5597 4.98856 12.3861C5.12938 12.2126 5.3068 12.0718 5.50831 11.9736C6.26999 11.6133 7.05777 11.3047 7.84181 10.995C8.02695 10.9221 8.16984 10.8481 8.23942 10.6556C8.61219 9.6226 8.98495 8.59209 9.34778 7.55418C9.3703 7.48136 9.37729 7.40468 9.36831 7.32903C9.35932 7.25339 9.33456 7.18043 9.29559 7.11482C8.4606 5.88068 8.48297 4.39971 8.5364 4.13931C8.57297 3.9027 8.68264 3.68322 8.85025 3.51122C9.01786 3.33921 9.23514 3.22317 9.47203 3.17915C10.061 3.1088 10.4201 3.28405 10.6438 3.54939C11.0153 3.9801 11.2414 5.37468 10.7133 7.0383ZM11.1296 10.2471L10.1703 8.94258C9.97526 9.49054 9.79758 9.99654 9.59877 10.547L11.1296 10.2471ZM5.9196 13.1313L5.99291 13.2399L6.77695 12.7178L6.70613 12.6105L5.9196 13.1313Z" fill="#0162A7"/>
<path d="M8.32126 19.2612C8.32126 18.7269 8.32126 18.1925 8.32126 17.6569C8.32126 17.257 8.48527 17.0966 8.88786 17.0916C9.34387 17.0855 9.79864 17.1003 10.2547 17.0916C10.7666 17.0768 11.1567 17.2854 11.5146 17.642C12.2365 18.3616 12.2402 20.3078 11.4723 20.9421C11.147 21.2317 10.7308 21.4005 10.2944 21.4198C9.81852 21.4346 9.34139 21.4284 8.86549 21.4198C8.50267 21.4198 8.32995 21.2568 8.32374 20.8965C8.3138 20.351 8.32374 19.8067 8.32374 19.2612H8.32126ZM9.31529 20.5768C9.62966 20.5768 9.92787 20.5966 10.2236 20.5768C10.4076 20.5727 10.584 20.5032 10.7208 20.3809C10.8576 20.2586 10.9457 20.0917 10.9691 19.9104C11.0409 19.509 11.0501 19.099 10.9965 18.6948C10.9033 18.1172 10.6448 17.937 10.0621 17.9049C9.81355 17.8913 9.57126 17.9049 9.31654 17.9049L9.31529 20.5768Z" fill="#0162A7"/>
<path d="M5.20996 19.7549C5.20996 20.1683 5.21866 20.546 5.20996 20.9236C5.20126 21.3013 4.94903 21.5123 4.60857 21.4494C4.38243 21.4074 4.21717 21.2828 4.21593 21.0421C4.21013 19.8623 4.21013 18.6824 4.21593 17.5026C4.21314 17.4501 4.22136 17.3977 4.24007 17.3486C4.25878 17.2994 4.28757 17.2547 4.32461 17.2172C4.36164 17.1798 4.40613 17.1503 4.45522 17.1308C4.50432 17.1113 4.55697 17.1022 4.60981 17.104C5.24951 17.0831 5.88985 17.0951 6.5283 17.1398C7.14212 17.1965 7.49625 17.6334 7.54968 18.2641C7.60311 18.8947 7.30117 19.471 6.72711 19.6216C6.32701 19.7277 5.89336 19.7142 5.47338 19.7524C5.40131 19.7611 5.33173 19.7549 5.20996 19.7549ZM5.2286 19.0144C5.53302 18.9996 5.82005 19.0033 6.09838 18.9675C6.37671 18.9317 6.52085 18.7429 6.52954 18.4566C6.53824 18.1703 6.4289 17.9481 6.11826 17.9049C5.82751 17.8642 5.53302 17.858 5.22612 17.8358L5.2286 19.0144Z" fill="#0162A7"/>
<path d="M13.894 17.8889V18.8268C14.3426 18.8268 14.775 18.8268 15.2062 18.8268C15.4547 18.8268 15.6286 18.9268 15.6833 19.1749C15.738 19.4229 15.5267 19.6167 15.1863 19.6241C14.7539 19.6327 14.3165 19.6241 13.8468 19.6241C13.8468 20.0745 13.8729 20.5053 13.8344 20.9298C13.8207 21.1363 13.7272 21.3295 13.5735 21.4691C13.2578 21.6876 12.8776 21.4198 12.8677 20.994C12.854 20.4695 12.8677 19.945 12.8677 19.4204C12.8677 18.8651 12.8677 18.3097 12.8677 17.7556C12.8739 17.2545 13.0404 17.0966 13.5486 17.0929C14.1798 17.0929 14.811 17.0929 15.4422 17.0929C15.7678 17.0929 15.9703 17.2545 15.9703 17.4903C15.9703 17.726 15.7827 17.8839 15.4447 17.8889C14.934 17.8938 14.4283 17.8889 13.894 17.8889Z" fill="#0162A7"/>
</svg>
