<svg width="9" height="12" viewBox="0 0 9 12" fill="none" xmlns="http://www.w3.org/2000/svg">
<path d="M4.5 0C2.01867 0 0 2.00819 0 4.47663C0 8.15444 4.05208 11.7455 4.22464 11.8966C4.30331 11.9655 4.40163 12 4.5 12C4.59837 12 4.69669 11.9655 4.7754 11.8966C4.94788 11.7455 9 8.15448 9 4.47663C9 2.00819 6.98133 0 4.5 0ZM4.5 3.21991C5.18926 3.21991 5.75001 3.78366 5.75001 4.47663C5.75001 5.1696 5.18926 5.73335 4.5 5.73335C3.81074 5.73335 3.24999 5.1696 3.24999 4.47663C3.24999 3.78366 3.81074 3.21991 4.5 3.21991Z" fill="#0162A7"/>
</svg>
