<svg width="149" height="86" viewBox="0 0 149 86" fill="none" xmlns="http://www.w3.org/2000/svg">
<path d="M122.492 9.70578L128.976 7.69117L135.199 10.094L142.239 3.18979L120.834 0L122.492 9.70578Z" fill="#C789AB"/>
<path d="M96.7744 54.9819L75.9463 56.2515L79.3984 35.7906L96.7744 54.9819Z" fill="#C789AB"/>
<path d="M118.536 66.0099L107.498 63.0929L98.2434 59.0637L96.7744 54.982L102.514 49.0746L118.536 66.0099Z" fill="#8AB531"/>
<path d="M126.312 63.9638L134.57 68.5386L119.817 67.227L118.537 66.0099L102.514 49.0746L102.504 49.0851L126.312 63.9638Z" fill="#C7D62C"/>
<path d="M121.443 60.9208L102.504 49.085L105.41 46.1051L112.997 52.2119L122.807 60.2913L121.443 60.9208Z" fill="#405586"/>
<path d="M112.996 52.2118L135.02 63.1977L126.311 63.9637L121.443 60.9208L122.807 60.2912L112.996 52.2118Z" fill="#A9C5AB"/>
<path d="M98.2438 59.0636L75.9258 56.388L75.9468 56.2516L96.7748 54.9819L98.2438 59.0636Z" fill="#B5C9E5"/>
<path d="M114.046 70.2488L75.9258 56.3879L98.2438 59.0636L107.498 63.0928L146.447 81.3816L126.753 74.7397L114.046 70.2488Z" fill="#405586"/>
<path d="M126.753 74.7398L140.844 85.1801L114.046 70.2489L126.753 74.7398Z" fill="#A9C5AA"/>
<path d="M114.843 35.9586L105.41 46.1051L96.7744 54.982L79.3984 35.7908L79.4614 35.6648L98.3483 17.1871L114.843 35.9586Z" fill="#812A71"/>
<path d="M131.359 28.0576L114.843 35.9586L98.3486 17.1871L128.977 7.69116L131.359 28.0576Z" fill="#9DB8DD"/>
<path d="M131.358 28.0576L148.713 15.8335L135.199 10.094L128.977 7.69116L131.358 28.0576Z" fill="#E6CB2C"/>
<path d="M96.9008 18.6035L79.4619 35.6647L91.8224 10.9229L96.9008 18.6035Z" fill="#C789AB"/>
<path d="M120.835 0L91.8223 10.9229L96.9007 18.6036L98.3487 17.1871L122.493 9.70578L120.835 0Z" fill="#7691C6"/>
<path d="M50.2391 36.7351L64.2994 33.5978L52.4845 44.4892L32.5693 40.9532L50.2391 36.7351Z" fill="#8AB531"/>
<path d="M25.5397 33.8915L50.2396 36.735L32.5698 40.9531L16.1592 36.7875L25.5397 33.8915Z" fill="#E6CB2C"/>
<path d="M12.2559 32.5695L24.3645 30.6808L22.6961 32.4541L12.2559 32.5695Z" fill="#CB8225"/>
<path d="M12.2559 32.5694L22.6961 32.454L25.5397 33.8915L19.4539 35.7697L12.2559 32.5694Z" fill="#812A71"/>
<path d="M12.2555 35.3186L0 32.4121L12.2555 32.5695V35.3186Z" fill="#812A71"/>
<path d="M75.9252 56.388L52.4844 44.4892L64.2992 33.5978L64.2467 33.5873L75.9252 56.388Z" fill="#E6CB2C"/>
<path d="M64.2471 33.5873L79.3986 35.7908L75.9255 56.388L64.2471 33.5873Z" fill="#812A71"/>
<path d="M16.2533 34.647C16.3949 34.647 16.5333 34.6892 16.6508 34.768C16.7684 34.8469 16.8598 34.959 16.9135 35.0899C16.9672 35.2209 16.9807 35.3649 16.9523 35.5036C16.9239 35.6423 16.8549 35.7694 16.754 35.8688C16.6532 35.9681 16.5251 36.0352 16.386 36.0616C16.2469 36.0879 16.1031 36.0723 15.9729 36.0167C15.8428 35.961 15.7321 35.8679 15.655 35.7492C15.5778 35.6305 15.5378 35.4916 15.5398 35.35C15.5426 35.1626 15.619 34.9838 15.7525 34.8523C15.886 34.7207 16.0659 34.647 16.2533 34.647ZM12.2451 32.5485L19.4431 35.7592L16.1484 36.8085L12.2451 35.3395V32.5485Z" fill="#9DB8DD"/>
</svg>
