<svg width="152" height="87" viewBox="0 0 152 87" fill="none" xmlns="http://www.w3.org/2000/svg">
<path d="M124.626 10.3139L131.177 8.36263L137.448 10.732L144.557 3.76325L122.953 0.557617L124.626 10.3139Z" stroke="white" stroke-width="0.75" stroke-miterlimit="10" stroke-linecap="round" stroke-linejoin="bevel"/>
<path d="M98.7019 56.0289L77.6562 57.2833L81.1406 36.6558L98.7019 56.0289Z" stroke="white" stroke-width="0.75" stroke-miterlimit="10" stroke-linecap="round" stroke-linejoin="bevel"/>
<path d="M120.723 67.179L109.573 64.2522L100.235 60.2103L98.7021 56.029L104.556 50.0359L120.723 67.179Z" stroke="white" stroke-width="0.75" stroke-miterlimit="10" stroke-linecap="round" stroke-linejoin="bevel"/>
<path d="M128.528 65.0884L136.891 69.6878L121.978 68.4334L120.723 67.179L104.556 50.0359L104.417 50.1753L128.528 65.0884Z" stroke="white" stroke-width="0.75" stroke-miterlimit="10" stroke-linecap="round" stroke-linejoin="bevel"/>
<path d="M123.65 62.022L104.417 50.1751L107.343 47.1089L115.009 53.2414L124.905 61.4645L123.65 62.022Z" stroke="white" stroke-width="0.75" stroke-miterlimit="10" stroke-linecap="round" stroke-linejoin="bevel"/>
<path d="M115.009 53.2415L137.309 64.3915L128.528 65.0883L123.65 62.0221L124.904 61.4646L115.009 53.2415Z" stroke="white" stroke-width="0.75" stroke-miterlimit="10" stroke-linecap="round" stroke-linejoin="bevel"/>
<path d="M100.235 60.2101L77.6562 57.4226V57.2832L98.7019 56.0288L100.235 60.2101Z" stroke="white" stroke-width="0.75" stroke-miterlimit="10" stroke-linecap="round" stroke-linejoin="bevel"/>
<path d="M148.877 82.6498L109.573 64.2522L100.235 60.2104L77.6562 57.4229L116.124 71.4998L143.163 86.5523L128.946 75.9598L148.877 82.6498Z" stroke="white" stroke-width="0.75" stroke-miterlimit="10" stroke-linecap="round" stroke-linejoin="bevel"/>
<path d="M116.96 36.7951L107.343 47.1089L98.7021 56.0289L81.1409 36.6558L81.2802 36.5164L100.235 17.9795L116.96 36.7951Z" stroke="white" stroke-width="0.75" stroke-miterlimit="10" stroke-linecap="round" stroke-linejoin="bevel"/>
<path d="M133.546 28.8509L116.96 36.7953L100.235 17.9797L131.176 8.36279L133.546 28.8509Z" stroke="white" stroke-width="0.75" stroke-miterlimit="10" stroke-linecap="round" stroke-linejoin="bevel"/>
<path d="M133.546 28.8509L151.107 16.5859L137.448 10.7322L131.177 8.36279L133.546 28.8509Z" stroke="white" stroke-width="0.75" stroke-miterlimit="10" stroke-linecap="round" stroke-linejoin="bevel"/>
<path d="M98.8413 19.3734L81.28 36.5165L93.6844 11.5684L98.8413 19.3734Z" stroke="white" stroke-width="0.75" stroke-miterlimit="10" stroke-linecap="round" stroke-linejoin="bevel"/>
<path d="M122.953 0.557617L93.6846 11.5683L98.8415 19.3733L100.235 17.9795L124.626 10.3139L122.953 0.557617Z" stroke="white" stroke-width="0.75" stroke-miterlimit="10" stroke-linecap="round" stroke-linejoin="bevel"/>
<path d="M51.7326 37.6314L65.9489 34.4258L53.9626 45.4364L33.8926 41.952L51.7326 37.6314Z" stroke="white" stroke-width="0.75" stroke-miterlimit="10" stroke-linecap="round" stroke-linejoin="bevel"/>
<path d="M26.7844 34.7046L51.7326 37.6315L33.8925 41.9521L17.3069 37.6315L26.7844 34.7046Z" stroke="white" stroke-width="0.75" stroke-miterlimit="10" stroke-linecap="round" stroke-linejoin="bevel"/>
<path d="M13.4044 36.2377L1 33.3108L13.4044 33.4502V36.2377Z" stroke="white" stroke-width="0.75" stroke-miterlimit="10" stroke-linecap="round" stroke-linejoin="bevel"/>
<path d="M77.6564 57.4227L53.9626 45.4364L65.9489 34.4258H65.8095L77.6564 57.4227Z" stroke="white" stroke-width="0.75" stroke-miterlimit="10" stroke-linecap="round" stroke-linejoin="bevel"/>
<path d="M65.8096 34.4258L81.1408 36.6558L77.6565 57.4227L65.8096 34.4258Z" stroke="white" stroke-width="0.75" stroke-miterlimit="10" stroke-linecap="round" stroke-linejoin="bevel"/>
<path d="M23.9968 33.3109L25.6693 31.499L13.4043 33.4503V36.2378L17.3068 37.6315L20.6518 36.6559L26.7843 34.7047L23.9968 33.3109Z" stroke="white" stroke-width="0.75" stroke-miterlimit="10" stroke-linecap="round" stroke-linejoin="bevel"/>
</svg>
